<svg width="22" height="20" viewBox="0 0 22 20" fill="none" xmlns="http://www.w3.org/2000/svg">
<path d="M3.11583 18.4325L2.62667 19.3047H2.62667L3.11583 18.4325ZM1.54405 11.0459L2.52794 11.2246L1.54405 11.0459ZM1.19859 16.2129L0.262139 16.5637L1.19859 16.2129ZM20.456 11.0459L21.4398 10.8671L20.456 11.0459ZM20.8014 16.2129L21.7379 16.5637L20.8014 16.2129ZM18.8842 18.4325L19.3733 19.3047L18.8842 18.4325ZM16.7458 1.36609L17.1427 0.448221V0.448221L16.7458 1.36609ZM19.648 6.59882L18.6641 6.77758L19.648 6.59882ZM18.5872 2.86661L17.7659 3.43708L18.5872 2.86661ZM5.25417 1.36609L4.85729 0.448221V0.448221L5.25417 1.36609ZM2.35201 6.59882L1.36812 6.42006L2.35201 6.59882ZM3.41283 2.86661L4.23414 3.43708H4.23414L3.41283 2.86661ZM15.6837 5.6657C15.9576 5.18616 15.791 4.57532 15.3114 4.30136C14.8319 4.0274 14.2211 4.19405 13.9471 4.6736L15.6837 5.6657ZM8.05291 4.6736C7.77895 4.19405 7.16811 4.0274 6.68856 4.30136C6.20902 4.57532 6.04236 5.18616 6.31632 5.6657L8.05291 4.6736ZM9.22255 2H12.7774V0H9.22255V2ZM18.6641 6.77758L19.4721 11.2246L21.4398 10.8671L20.6319 6.42006L18.6641 6.77758ZM13.5854 18H8.41459V20H13.5854V18ZM2.52794 11.2246L3.3359 6.77758L1.36812 6.42006L0.560153 10.8671L2.52794 11.2246ZM8.41459 18C6.96827 18 5.94612 17.9992 5.15701 17.9326C4.37606 17.8667 3.93019 17.7427 3.60499 17.5603L2.62667 19.3047C3.31337 19.6898 4.08793 19.8495 4.9889 19.9255C5.88172 20.0008 7.003 20 8.41459 20V18ZM0.560153 10.8671C0.315111 12.2158 0.118558 13.2924 0.0393476 14.164C-0.0407505 15.0454 -0.0138093 15.8271 0.262139 16.5637L2.13504 15.8621C2.01145 15.5322 1.96279 15.0971 2.03114 14.345C2.10038 13.5832 2.27632 12.6096 2.52794 11.2246L0.560153 10.8671ZM3.60499 17.5603C2.91891 17.1755 2.40107 16.5722 2.13504 15.8621L0.262139 16.5637C0.697224 17.7251 1.53703 18.6936 2.62667 19.3047L3.60499 17.5603ZM19.4721 11.2246C19.7237 12.6096 19.8996 13.5832 19.9689 14.345C20.0372 15.0971 19.9885 15.5322 19.865 15.8621L21.7379 16.5637C22.0138 15.8271 22.0408 15.0454 21.9607 14.164C21.8814 13.2924 21.6849 12.2158 21.4398 10.8671L19.4721 11.2246ZM13.5854 20C14.997 20 16.1183 20.0008 17.0111 19.9255C17.9121 19.8495 18.6866 19.6898 19.3733 19.3047L18.395 17.5603C18.0698 17.7427 17.6239 17.8667 16.843 17.9326C16.0539 17.9992 15.0317 18 13.5854 18V20ZM19.865 15.8621C19.5989 16.5722 19.0811 17.1755 18.395 17.5603L19.3733 19.3047C20.463 18.6936 21.3028 17.7251 21.7379 16.5637L19.865 15.8621ZM12.7774 2C13.8326 2 14.5704 2.00062 15.1517 2.0431C15.7211 2.08472 16.0691 2.16294 16.3489 2.28396L17.1427 0.448221C16.5759 0.203148 15.9803 0.0983282 15.2975 0.0484213C14.6265 -0.000618696 13.8035 0 12.7774 0V2ZM20.6319 6.42006C20.4538 5.4398 20.3108 4.64894 20.1435 4.01201C19.9728 3.36207 19.7603 2.80259 19.4085 2.29613L17.7659 3.43708C17.9324 3.67683 18.0694 3.98812 18.2091 4.52006C18.3522 5.06502 18.4805 5.76716 18.6641 6.77758L20.6319 6.42006ZM16.3489 2.28396C16.927 2.53391 17.417 2.93477 17.7659 3.43708L19.4085 2.29613C18.8435 1.48274 18.0574 0.843749 17.1427 0.448221L16.3489 2.28396ZM9.22255 0C8.19649 0 7.37351 -0.000618696 6.70253 0.0484213C6.01968 0.0983282 5.42406 0.203148 4.85729 0.448221L5.65106 2.28396C5.93093 2.16294 6.27891 2.08472 6.84831 2.0431C7.42957 2.00062 8.16745 2 9.22255 2V0ZM3.3359 6.77758C3.51948 5.76716 3.64775 5.06502 3.79088 4.52007C3.93059 3.98812 4.06762 3.67683 4.23414 3.43708L2.59151 2.29613C2.23973 2.80259 2.02719 3.36207 1.85649 4.01201C1.6892 4.64894 1.54621 5.4398 1.36812 6.42006L3.3359 6.77758ZM4.85729 0.448221C3.94256 0.843749 3.15648 1.48274 2.59151 2.29613L4.23414 3.43708C4.58304 2.93477 5.073 2.53391 5.65106 2.28396L4.85729 0.448221ZM13.9471 4.6736C13.3791 5.66789 12.2784 6.35294 11 6.35294V8.35294C13.0051 8.35294 14.764 7.2755 15.6837 5.6657L13.9471 4.6736ZM11 6.35294C9.72161 6.35294 8.62094 5.66789 8.05291 4.6736L6.31632 5.6657C7.23599 7.2755 8.99495 8.35294 11 8.35294V6.35294Z" fill="#777777"/>
</svg>
