<svg width="22" height="20" viewBox="0 0 22 20" fill="none" xmlns="http://www.w3.org/2000/svg">
<path d="M21 6.971H15.6154C13.916 6.971 12.5385 8.32771 12.5385 10.0013C12.5385 11.6749 13.916 13.0316 15.6154 13.0316H21M9.15385 18.3346H13.6154C16.2002 18.3346 17.4927 18.3346 18.48 17.8392C19.3484 17.4034 20.0545 16.7081 20.497 15.8528C21 14.8804 21 13.6076 21 11.0619V8.9407C21 6.395 21 5.12216 20.497 4.14983C20.0545 3.29455 19.3484 2.59918 18.48 2.16339C17.4927 1.66797 16.2002 1.66797 13.6154 1.66797H9.15385C6.56899 1.66797 4.50733 1.66797 3.52004 2.16339C2.6516 2.59918 1.94554 3.29455 1.50305 4.14983C1 5.12216 1 6.395 1 8.9407V11.0619C1 13.6076 1 14.8804 1.50305 15.8528C1.94554 16.7081 2.6516 17.4034 3.52004 17.8392C4.50733 18.3346 6.56899 18.3346 9.15385 18.3346Z" stroke="#00004D" stroke-width="2"/>
<rect x="14.8457" y="9.24219" width="2.30769" height="1.51515" rx="0.757576" fill="#00004D"/>
<rect x="4.07715" y="4.69922" width="6.15385" height="1.51515" rx="0.757576" fill="#00004D"/>
</svg>
