<svg width="23" height="22" viewBox="0 0 23 22" fill="none" xmlns="http://www.w3.org/2000/svg">
<path d="M14.2418 21C14.2418 21.5523 14.6895 22 15.2418 22C15.7941 22 16.2418 21.5523 16.2418 21H14.2418ZM0 21C0 21.5523 0.447715 22 1 22C1.55228 22 2 21.5523 2 21H0ZM17.5317 15.4348V14.4348C16.984 14.4348 16.5382 14.8754 16.5318 15.423C16.5253 15.9707 16.9607 16.4216 17.5082 16.4345L17.5317 15.4348ZM17.1285 6.08696C16.5762 6.08696 16.1285 6.53467 16.1285 7.08696C16.1285 7.63924 16.5762 8.08696 17.1285 8.08696V6.08696ZM20.9671 21C20.9671 21.5523 21.4148 22 21.9671 22C22.5193 22 22.9671 21.5523 22.9671 21H20.9671ZM12.4616 7C12.4616 9.87405 10.4119 12 8.12089 12V14C11.729 14 14.4616 10.7534 14.4616 7H12.4616ZM8.12089 12C5.82987 12 3.78022 9.87405 3.78022 7H1.78022C1.78022 10.7534 4.51277 14 8.12089 14V12ZM3.78022 7C3.78022 4.12595 5.82987 2 8.12089 2V0C4.51277 0 1.78022 3.24663 1.78022 7H3.78022ZM8.12089 2C10.4119 2 12.4616 4.12595 12.4616 7H14.4616C14.4616 3.24663 11.729 0 8.12089 0V2ZM2 21C2 19.8812 2.00128 18.8901 2.10457 18.0015C2.20729 17.1179 2.40355 16.4173 2.74198 15.8669C3.36119 14.8598 4.69498 14 8.12089 14V12C4.4259 12 2.19926 12.9311 1.03824 14.8194C0.48656 15.7167 0.237765 16.7399 0.117953 17.7706C-0.00127935 18.7962 0 19.9097 0 21H2ZM8.09647 13.9997C11.5359 14.0837 12.8812 14.9412 13.5034 15.9379C13.8399 16.477 14.0351 17.16 14.1374 18.0276C14.2404 18.9015 14.2418 19.8807 14.2418 21H16.2418C16.2418 19.9102 16.2431 18.8065 16.1236 17.7934C16.0034 16.7739 15.7536 15.7657 15.2 14.8788C14.0419 13.0236 11.8268 12.0902 8.1453 12.0003L8.09647 13.9997ZM19.6813 11.2609C19.6813 12.2851 19.4521 13.1083 19.0823 13.6444C18.7414 14.1385 18.257 14.4348 17.5317 14.4348V16.4348C18.9367 16.4348 20.0271 15.7967 20.7285 14.7802C21.4009 13.8056 21.6813 12.5418 21.6813 11.2609H19.6813ZM17.1285 8.08696C18.5335 8.08696 19.6813 9.31739 19.6813 11.2609H21.6813C21.6813 8.59397 19.984 6.08696 17.1285 6.08696V8.08696ZM17.5082 16.4345C19.9931 16.493 20.5631 17.0888 20.7728 17.5353C20.9151 17.8381 20.9843 18.2558 20.9975 18.8721C21.0039 19.1738 20.9971 19.4972 20.9877 19.8575C20.9786 20.2111 20.9671 20.5997 20.9671 21H22.9671C22.9671 20.6319 22.9776 20.2741 22.9871 19.9093C22.9964 19.5511 23.0046 19.1841 22.997 18.8294C22.9821 18.1331 22.9068 17.3742 22.5831 16.685C21.8609 15.1476 20.2132 14.4976 17.5552 14.4351L17.5082 16.4345Z" fill="#777777"/>
</svg>
