<svg width="24" height="24" viewBox="0 0 24 24" fill="none" xmlns="http://www.w3.org/2000/svg">
<path d="M0 12C0 8.27247 0 6.4087 0.608964 4.93853C1.42092 2.97831 2.97831 1.42092 4.93853 0.608964C6.4087 0 8.27247 0 12 0C15.7275 0 17.5913 0 19.0615 0.608964C21.0217 1.42092 22.5791 2.97831 23.391 4.93853C24 6.4087 24 8.27247 24 12C24 15.7275 24 17.5913 23.391 19.0615C22.5791 21.0217 21.0217 22.5791 19.0615 23.391C17.5913 24 15.7275 24 12 24C8.27247 24 6.4087 24 4.93853 23.391C2.97831 22.5791 1.42092 21.0217 0.608964 19.0615C0 17.5913 0 15.7275 0 12Z" fill="#E5ECF6"/>
<path d="M12.0002 9.49976C11.5057 9.49976 11.0224 9.64639 10.6112 9.92109C10.2001 10.1958 9.87968 10.5862 9.69046 11.0431C9.50124 11.4999 9.45173 12.0025 9.54819 12.4875C9.64466 12.9724 9.88276 13.4179 10.2324 13.7675C10.582 14.1172 11.0275 14.3553 11.5124 14.4517C11.9974 14.5482 12.5 14.4987 12.9569 14.3095C13.4137 14.1202 13.8041 13.7998 14.0788 13.3887C14.3535 12.9776 14.5002 12.4942 14.5002 11.9998C14.5002 11.3367 14.2368 10.7008 13.7679 10.232C13.2991 9.76316 12.6632 9.49976 12.0002 9.49976ZM12.0002 13.4998C11.7035 13.4998 11.4135 13.4118 11.1668 13.247C10.9201 13.0821 10.7279 12.8479 10.6143 12.5738C10.5008 12.2997 10.4711 11.9981 10.529 11.7071C10.5869 11.4162 10.7297 11.1489 10.9395 10.9391C11.1493 10.7293 11.4165 10.5865 11.7075 10.5286C11.9985 10.4707 12.3001 10.5004 12.5742 10.6139C12.8483 10.7275 13.0825 10.9197 13.2474 11.1664C13.4122 11.4131 13.5002 11.7031 13.5002 11.9998C13.5002 12.3976 13.3421 12.7791 13.0608 13.0604C12.7795 13.3417 12.398 13.4998 12.0002 13.4998ZM16.607 13.946C16.3922 14.4539 16.0949 14.9227 15.727 15.3335C15.638 15.4299 15.5146 15.4874 15.3835 15.4936C15.2524 15.4998 15.1241 15.4542 15.0264 15.3667C14.9286 15.2792 14.8691 15.1567 14.8608 15.0257C14.8525 14.8948 14.8961 14.7658 14.982 14.6666C15.6386 13.9336 16.0016 12.9841 16.0016 12.0001C16.0016 11.016 15.6386 10.0665 14.982 9.33351C14.937 9.2848 14.9021 9.22762 14.8794 9.16529C14.8567 9.10297 14.8467 9.03675 14.8498 8.9705C14.8529 8.90424 14.8692 8.83927 14.8977 8.77937C14.9262 8.71948 14.9663 8.66585 15.0157 8.62161C15.0652 8.57737 15.1229 8.5434 15.1856 8.52169C15.2483 8.49998 15.3146 8.49096 15.3808 8.49515C15.447 8.49934 15.5117 8.51666 15.5712 8.5461C15.6306 8.57555 15.6836 8.61652 15.727 8.66664C16.3584 9.3731 16.7762 10.2443 16.932 11.1788C17.0878 12.1134 16.9751 13.073 16.607 13.946ZM8.31266 10.4429C8.01764 11.1412 7.92716 11.9091 8.05176 12.6569C8.17636 13.4047 8.5109 14.1017 9.01641 14.6666C9.10237 14.7658 9.1459 14.8948 9.1376 15.0257C9.12931 15.1567 9.06986 15.2792 8.97208 15.3667C8.8743 15.4542 8.74603 15.4998 8.61495 15.4936C8.48386 15.4874 8.36047 15.4299 8.27141 15.3335C7.45052 14.4172 6.9966 13.2303 6.9966 12.0001C6.9966 10.7699 7.45052 9.58292 8.27141 8.66664C8.35984 8.5676 8.48399 8.50774 8.61656 8.50024C8.74912 8.49274 8.87924 8.53821 8.97828 8.62664C9.07732 8.71507 9.13718 8.83923 9.14468 8.97179C9.15218 9.10436 9.10671 9.23447 9.01828 9.33351C8.72328 9.66169 8.48483 10.0366 8.31266 10.4429ZM19.5002 11.9998C19.5032 13.9633 18.7333 15.8492 17.357 17.2498C17.3115 17.2984 17.2567 17.3375 17.1958 17.3647C17.135 17.3919 17.0693 17.4067 17.0026 17.4081C16.936 17.4095 16.8697 17.3976 16.8078 17.3731C16.7458 17.3486 16.6894 17.3119 16.6418 17.2652C16.5942 17.2185 16.5564 17.1628 16.5307 17.1013C16.5049 17.0398 16.4917 16.9738 16.4919 16.9072C16.492 16.8405 16.5055 16.7745 16.5315 16.7132C16.5575 16.6518 16.5955 16.5962 16.6433 16.5498C17.835 15.3356 18.5026 13.7023 18.5026 12.001C18.5026 10.2997 17.835 8.66641 16.6433 7.45226C16.5501 7.35761 16.4984 7.22984 16.4994 7.09704C16.5005 6.96424 16.5543 6.8373 16.6489 6.74414C16.7436 6.65098 16.8713 6.59924 17.0041 6.60029C17.1369 6.60135 17.2639 6.65511 17.357 6.74976C18.7333 8.15028 19.5032 10.0362 19.5002 11.9998ZM7.35703 16.5485C7.40308 16.5954 7.43944 16.6509 7.46404 16.7118C7.48865 16.7727 7.50101 16.8379 7.50043 16.9036C7.49985 16.9693 7.48634 17.0342 7.46066 17.0947C7.43498 17.1551 7.39765 17.21 7.35078 17.256C7.30392 17.3021 7.24844 17.3384 7.18752 17.363C7.1266 17.3876 7.06143 17.4 6.99574 17.3994C6.93004 17.3988 6.8651 17.3853 6.80462 17.3596C6.74415 17.334 6.68933 17.2966 6.64328 17.2498C5.26715 15.8488 4.49609 13.9635 4.49609 11.9998C4.49609 10.036 5.26715 8.15072 6.64328 6.74976C6.68881 6.70108 6.74362 6.66199 6.80448 6.6348C6.86534 6.60761 6.93102 6.59286 6.99766 6.59142C7.06431 6.58999 7.13056 6.60189 7.19254 6.62643C7.25451 6.65097 7.31096 6.68766 7.35855 6.73433C7.40614 6.78101 7.44391 6.83672 7.46966 6.89821C7.4954 6.9597 7.50859 7.02571 7.50845 7.09237C7.50831 7.15902 7.49484 7.22498 7.46883 7.28636C7.44283 7.34773 7.40482 7.40329 7.35703 7.44976C6.16532 8.66391 5.49768 10.2972 5.49768 11.9985C5.49768 13.6998 6.16532 15.3331 7.35703 16.5473V16.5485Z" fill="#1C1C1C"/>
</svg>
