<svg width="24" height="24" viewBox="0 0 24 24" fill="none" xmlns="http://www.w3.org/2000/svg">
<path d="M0 12C0 8.27247 0 6.4087 0.608964 4.93853C1.42092 2.97831 2.97831 1.42092 4.93853 0.608964C6.4087 0 8.27247 0 12 0C15.7275 0 17.5913 0 19.0615 0.608964C21.0217 1.42092 22.5791 2.97831 23.391 4.93853C24 6.4087 24 8.27247 24 12C24 15.7275 24 17.5913 23.391 19.0615C22.5791 21.0217 21.0217 22.5791 19.0615 23.391C17.5913 24 15.7275 24 12 24C8.27247 24 6.4087 24 4.93853 23.391C2.97831 22.5791 1.42092 21.0217 0.608964 19.0615C0 17.5913 0 15.7275 0 12Z" fill="#E3F5FF"/>
<path d="M17 12.9998H18C18.1326 12.9998 18.2598 12.9471 18.3536 12.8533C18.4473 12.7596 18.5 12.6324 18.5 12.4998C18.5 12.3672 18.4473 12.24 18.3536 12.1462C18.2598 12.0525 18.1326 11.9998 18 11.9998H17V10.9998H18C18.1326 10.9998 18.2598 10.9471 18.3536 10.8533C18.4473 10.7596 18.5 10.6324 18.5 10.4998C18.5 10.3672 18.4473 10.24 18.3536 10.1462C18.2598 10.0525 18.1326 9.99979 18 9.99979H16.975C16.8646 8.90238 16.3933 7.87259 15.635 7.07166L16.8538 5.85354C16.9002 5.80708 16.9371 5.75193 16.9622 5.69124C16.9873 5.63054 17.0003 5.56549 17.0003 5.49979C17.0003 5.43409 16.9873 5.36904 16.9622 5.30834C16.9371 5.24765 16.9002 5.19249 16.8538 5.14604C16.8073 5.09958 16.7521 5.06273 16.6914 5.03759C16.6308 5.01245 16.5657 4.99951 16.5 4.99951C16.4343 4.99951 16.3692 5.01245 16.3086 5.03759C16.2479 5.06273 16.1927 5.09958 16.1462 5.14604L14.8781 6.41479C14.0365 5.81943 13.0309 5.49972 12 5.49972C10.9691 5.49972 9.96351 5.81943 9.12187 6.41479L7.85375 5.14604C7.75993 5.05222 7.63268 4.99951 7.5 4.99951C7.36732 4.99951 7.24007 5.05222 7.14625 5.14604C7.05243 5.23986 6.99972 5.36711 6.99972 5.49979C6.99972 5.63247 7.05243 5.75972 7.14625 5.85354L8.365 7.07166C7.6067 7.87259 7.13544 8.90238 7.025 9.99979H6C5.86739 9.99979 5.74021 10.0525 5.64645 10.1462C5.55268 10.24 5.5 10.3672 5.5 10.4998C5.5 10.6324 5.55268 10.7596 5.64645 10.8533C5.74021 10.9471 5.86739 10.9998 6 10.9998H7V11.9998H6C5.86739 11.9998 5.74021 12.0525 5.64645 12.1462C5.55268 12.24 5.5 12.3672 5.5 12.4998C5.5 12.6324 5.55268 12.7596 5.64645 12.8533C5.74021 12.9471 5.86739 12.9998 6 12.9998H7V13.4998C7 13.6685 7.00875 13.8354 7.025 13.9998H6C5.86739 13.9998 5.74021 14.0525 5.64645 14.1462C5.55268 14.24 5.5 14.3672 5.5 14.4998C5.5 14.6324 5.55268 14.7596 5.64645 14.8533C5.74021 14.9471 5.86739 14.9998 6 14.9998H7.23C7.54904 16.015 8.18366 16.9019 9.04155 17.5316C9.89944 18.1612 10.9358 18.5008 12 18.5008C13.0642 18.5008 14.1006 18.1612 14.9584 17.5316C15.8163 16.9019 16.451 16.015 16.77 14.9998H18C18.1326 14.9998 18.2598 14.9471 18.3536 14.8533C18.4473 14.7596 18.5 14.6324 18.5 14.4998C18.5 14.3672 18.4473 14.24 18.3536 14.1462C18.2598 14.0525 18.1326 13.9998 18 13.9998H16.975C16.9913 13.8354 17 13.6685 17 13.4998V12.9998ZM12 6.49979C12.9738 6.501 13.9138 6.85703 14.6441 7.50125C15.3744 8.14547 15.8448 9.03373 15.9675 9.99979H8.03C8.15271 9.0333 8.62356 8.1447 9.35435 7.50043C10.0851 6.85615 11.0258 6.50039 12 6.49979ZM12.5 17.4673V12.4998C12.5 12.3672 12.4473 12.24 12.3536 12.1462C12.2598 12.0525 12.1326 11.9998 12 11.9998C11.8674 11.9998 11.7402 12.0525 11.6464 12.1462C11.5527 12.24 11.5 12.3672 11.5 12.4998V17.4673C10.5339 17.3446 9.64568 16.8741 9.00146 16.1439C8.35724 15.4136 8.00121 14.4736 8 13.4998V10.9998H16V13.4998C15.9988 14.4736 15.6428 15.4136 14.9985 16.1439C14.3543 16.8741 13.4661 17.3446 12.5 17.4673Z" fill="#1C1C1C"/>
</svg>
