<svg width="22" height="20" viewBox="0 0 22 20" fill="none" xmlns="http://www.w3.org/2000/svg">
<path d="M21 6.96953H15.6154C13.916 6.96953 12.5385 8.32625 12.5385 9.99984C12.5385 11.6734 13.916 13.0301 15.6154 13.0301H21M9.15385 18.3332H13.6154C16.2002 18.3332 17.4927 18.3332 18.48 17.8377C19.3484 17.402 20.0545 16.7066 20.497 15.8513C21 14.879 21 13.6061 21 11.0604V8.93923C21 6.39354 21 5.12069 20.497 4.14837C20.0545 3.29308 19.3484 2.59772 18.48 2.16193C17.4927 1.6665 16.2002 1.6665 13.6154 1.6665H9.15385C6.56899 1.6665 4.50733 1.6665 3.52004 2.16193C2.6516 2.59772 1.94554 3.29308 1.50305 4.14837C1 5.12069 1 6.39354 1 8.93923V11.0604C1 13.6061 1 14.879 1.50305 15.8513C1.94554 16.7066 2.6516 17.402 3.52004 17.8377C4.50733 18.3332 6.56899 18.3332 9.15385 18.3332Z" stroke="#777777" stroke-width="2"/>
<rect x="14.8457" y="9.24219" width="2.30769" height="1.51515" rx="0.757576" fill="#777777"/>
<rect x="4.07617" y="4.69678" width="6.15385" height="1.51515" rx="0.757576" fill="#777777"/>
</svg>
