<svg width="106" height="96" viewBox="0 0 106 96" fill="none" xmlns="http://www.w3.org/2000/svg">
<g opacity="0.999995">
<path d="M79.5401 49.6756C79.5401 66.6001 66.1884 80.3414 49.7437 80.3414C33.2991 80.3414 19.9473 66.6001 19.9473 49.6756C19.9473 32.7511 33.2991 19.0098 49.7437 19.0098C66.1884 19.0098 79.5401 32.7511 79.5401 49.6756Z" fill="#00004D"/>
</g>
<path d="M34.1396 50.6789L43.9198 60.7444L63.9573 38.2192" stroke="white" stroke-width="6" stroke-linecap="round" stroke-linejoin="round"/>
<path d="M89.8234 14.5913C89.8234 19.5769 93.7507 23.6179 98.5941 23.6179C93.7507 23.6179 89.8234 27.6608 89.8234 32.6464C89.8234 27.6608 85.897 23.6179 81.0527 23.6179C85.897 23.6179 89.8234 19.5769 89.8234 14.5913Z" fill="#4B4B4B"/>
<path d="M7.82392 16.4048C7.82392 19.1203 9.96299 21.3212 12.601 21.3212C9.96299 21.3212 7.82392 23.5232 7.82392 26.2387C7.82392 23.5232 5.68537 21.3212 3.04688 21.3212C5.68537 21.3212 7.82392 19.1203 7.82392 16.4048Z" fill="#4B4B4B"/>
<path d="M86.987 71.3301C86.987 74.0456 89.1261 76.2465 91.7641 76.2465C89.1261 76.2465 86.987 78.4485 86.987 81.164C86.987 78.4485 84.8485 76.2465 82.21 76.2465C84.8485 76.2465 86.987 74.0456 86.987 71.3301Z" fill="#4B4B4B"/>
<path d="M84.4792 27.3896C84.4792 29.6905 86.2931 31.5573 88.5287 31.5573C86.2931 31.5573 84.4792 33.4221 84.4792 35.7229C84.4792 33.4221 82.6672 31.5573 80.4316 31.5573C82.6672 31.5573 84.4792 29.6905 84.4792 27.3896Z" fill="#00004D"/>
<path d="M17.7216 10.9121C17.7216 14.1979 20.312 16.8638 23.5046 16.8638C20.312 16.8638 17.7216 19.5269 17.7216 22.8127C17.7216 19.5269 15.134 16.8638 11.9414 16.8638C15.134 16.8638 17.7216 14.1979 17.7216 10.9121Z" fill="#00004D"/>
<path d="M11.8281 71.1943C11.0953 73.1583 9.57727 74.7207 7.66895 75.4739C9.57727 76.2281 11.0953 77.7914 11.8281 79.7554C12.5609 77.7914 14.079 76.2281 15.9873 75.4739C14.079 74.7207 12.5609 73.1583 11.8281 71.1943Z" stroke="#00004D"/>
<path d="M96.1533 67.6685C95.4205 69.6325 93.9025 71.1948 91.9941 71.948C93.9025 72.7022 95.4205 74.2656 96.1533 76.2296C96.8861 74.2656 98.4042 72.7022 100.313 71.948C98.4042 71.1948 96.8861 69.6325 96.1533 67.6685Z" stroke="#00004D"/>
</svg>
