<svg width="23" height="22" viewBox="0 0 23 22" fill="none" xmlns="http://www.w3.org/2000/svg">
<path d="M7.00455 3.65515L6.32721 2.91948L7.00455 3.65515ZM10.2864 1.18328L10.5815 2.13876L10.2864 1.18328ZM15.9954 3.65514L15.3181 4.39081L15.9954 3.65514ZM12.7136 1.18328L12.4185 2.13876L12.7136 1.18328ZM3.29324 20.5314L2.83101 21.4181L3.29324 20.5314ZM1.45777 18.6536L0.562651 19.0994L1.45777 18.6536ZM21.5422 18.6536L22.4373 19.0994L21.5422 18.6536ZM19.7068 20.5314L20.169 21.4181L19.7068 20.5314ZM21.868 10.0285L22.8379 9.78497L21.868 10.0285ZM19.7754 7.13548L20.4528 6.39982L19.7754 7.13548ZM21.2979 8.71896L22.1365 8.17417L21.2979 8.71896ZM1.13202 10.0285L0.162117 9.78497L1.13202 10.0285ZM3.22456 7.13548L2.54721 6.39982L3.22456 7.13548ZM1.70209 8.71896L0.863521 8.17417L1.70209 8.71896ZM13.0544 13.2629L12.7971 14.2293L13.0544 13.2629ZM14.9106 15.1075L15.8761 14.8472V14.8472L14.9106 15.1075ZM9.9456 13.2629L9.68829 12.2966L9.9456 13.2629ZM8.08944 15.1075L7.12393 14.8472L8.08944 15.1075ZM21 12.2454V14.1249H23V12.2454H21ZM2 14.1249V12.2454H0V14.1249H2ZM3.9019 7.87115L7.6819 4.39081L6.32721 2.91948L2.54721 6.39982L3.9019 7.87115ZM15.3181 4.39081L19.0981 7.87115L20.4528 6.39982L16.6728 2.91948L15.3181 4.39081ZM7.6819 4.39081C8.48791 3.6487 9.05064 3.13155 9.52229 2.7609C9.98452 2.39766 10.2969 2.22662 10.5815 2.13876L9.9914 0.227786C9.37746 0.417352 8.84337 0.750767 8.28652 1.18836C7.73909 1.61856 7.11013 2.19863 6.32721 2.91948L7.6819 4.39081ZM16.6728 2.91948C15.8899 2.19862 15.2609 1.61856 14.7135 1.18836C14.1566 0.750767 13.6225 0.417352 13.0086 0.227786L12.4185 2.13876C12.7031 2.22662 13.0155 2.39766 13.4777 2.7609C13.9494 3.13154 14.5121 3.6487 15.3181 4.39081L16.6728 2.91948ZM10.5815 2.13876C11.1807 1.95375 11.8193 1.95375 12.4185 2.13876L13.0086 0.227786C12.025 -0.0759288 10.975 -0.0759288 9.9914 0.227786L10.5815 2.13876ZM7.72 19.9997C6.52701 19.9997 5.69379 19.9989 5.04474 19.9446C4.40805 19.8914 4.03823 19.792 3.75547 19.6446L2.83101 21.4181C3.44668 21.739 4.11412 21.8738 4.87815 21.9377C5.62982 22.0005 6.56077 21.9997 7.72 21.9997V19.9997ZM0 14.1249C0 15.312 -0.00074327 16.2611 0.0603955 17.0266C0.122415 17.8032 0.252861 18.4774 0.562651 19.0994L2.35289 18.2078C2.20491 17.9107 2.10647 17.5238 2.05405 16.8674C2.00074 16.1999 2 15.3442 2 14.1249H0ZM3.75547 19.6446C3.15511 19.3316 2.6628 18.83 2.35289 18.2078L0.562651 19.0994C1.05809 20.0942 1.85081 20.9072 2.83101 21.4181L3.75547 19.6446ZM21 14.1249C21 15.3442 20.9993 16.1999 20.946 16.8674C20.8935 17.5238 20.7951 17.9107 20.6471 18.2078L22.4373 19.0994C22.7471 18.4774 22.8776 17.8032 22.9396 17.0266C23.0007 16.2611 23 15.312 23 14.1249H21ZM15.28 21.9997C16.4392 21.9997 17.3702 22.0005 18.1218 21.9377C18.8859 21.8738 19.5533 21.739 20.169 21.4181L19.2445 19.6446C18.9618 19.792 18.5919 19.8914 17.9553 19.9446C17.3062 19.9989 16.473 19.9997 15.28 19.9997V21.9997ZM20.6471 18.2078C20.3372 18.83 19.8449 19.3316 19.2445 19.6446L20.169 21.4181C21.1492 20.9072 21.9419 20.0942 22.4373 19.0994L20.6471 18.2078ZM23 12.2454C23 11.1683 23.007 10.4587 22.8379 9.78497L20.8981 10.2719C20.993 10.6499 21 11.0677 21 12.2454H23ZM19.0981 7.87115C19.9545 8.65967 20.2501 8.9417 20.4593 9.26375L22.1365 8.17417C21.7582 7.59184 21.2346 7.11969 20.4528 6.39982L19.0981 7.87115ZM22.8379 9.78497C22.6942 9.2125 22.4573 8.66795 22.1365 8.17417L20.4593 9.26375C20.6593 9.57149 20.8078 9.91226 20.8981 10.2719L22.8379 9.78497ZM2 12.2454C2 11.0677 2.00703 10.6499 2.10192 10.2719L0.162117 9.78497C-0.0070318 10.4587 0 11.1683 0 12.2454H2ZM2.54721 6.39982C1.76536 7.11969 1.24184 7.59184 0.863521 8.17417L2.54067 9.26375C2.74989 8.9417 3.04549 8.65967 3.9019 7.87115L2.54721 6.39982ZM2.10192 10.2719C2.19222 9.91226 2.34074 9.57149 2.54067 9.26375L0.863521 8.17417C0.54273 8.66795 0.305833 9.2125 0.162117 9.78497L2.10192 10.2719ZM14 16.6522V20.72H16V16.6522H14ZM9 20.72V16.6522H7V20.72H9ZM11.5 14.174C12.3777 14.174 12.6216 14.1825 12.7971 14.2293L13.3117 12.2966C12.8196 12.1656 12.2497 12.174 11.5 12.174V14.174ZM16 16.6522C16 15.9083 16.0087 15.339 15.8761 14.8472L13.945 15.3679C13.9913 15.5395 14 15.7788 14 16.6522H16ZM12.7971 14.2293C13.36 14.3792 13.7959 14.8149 13.945 15.3679L15.8761 14.8472C15.5397 13.5997 14.5605 12.6291 13.3117 12.2966L12.7971 14.2293ZM11.5 12.174C10.7503 12.174 10.1804 12.1656 9.68829 12.2966L10.2029 14.2293C10.3784 14.1825 10.6223 14.174 11.5 14.174V12.174ZM9 16.6522C9 15.7788 9.00869 15.5395 9.05496 15.3679L7.12393 14.8472C6.99131 15.339 7 15.9083 7 16.6522H9ZM9.68829 12.2966C8.43951 12.6291 7.46028 13.5997 7.12393 14.8472L9.05496 15.3679C9.20406 14.8149 9.63995 14.3792 10.2029 14.2293L9.68829 12.2966ZM7 20.72C7 20.3218 7.32303 19.9992 7.7212 19.9997L7.7188 21.9997C8.42614 22.0005 9 21.4273 9 20.72H7ZM14 20.72C14 21.4273 14.5739 22.0005 15.2812 21.9997L15.2788 19.9997C15.677 19.9992 16 20.3218 16 20.72H14Z" fill="#777777"/>
</svg>
