<svg width="22" height="22" viewBox="0 0 22 22" fill="none" xmlns="http://www.w3.org/2000/svg">
<path d="M14.75 11.8333C13.5994 11.8333 12.6667 12.7661 12.6667 13.9167C12.6667 15.0673 13.5994 16 14.75 16C15.9006 16 16.8333 15.0673 16.8333 13.9167C16.8333 12.7661 15.9006 11.8333 14.75 11.8333ZM14.75 11.8333V6M7.25 10.1667C6.09941 10.1667 5.16667 9.23393 5.16667 8.08333C5.16667 6.93274 6.09941 6 7.25 6C8.40059 6 9.33333 6.93274 9.33333 8.08333C9.33333 9.23393 8.40059 10.1667 7.25 10.1667ZM7.25 10.1667V16M11 21C8.67507 21 7.51261 21 6.55886 20.7444C3.97067 20.0509 1.94906 18.0293 1.25556 15.4411C1 14.4874 1 13.3249 1 11C1 8.67507 1 7.51261 1.25556 6.55886C1.94906 3.97067 3.97067 1.94906 6.55886 1.25556C7.51261 1 8.67507 1 11 1C13.3249 1 14.4874 1 15.4411 1.25556C18.0293 1.94906 20.0509 3.97067 20.7444 6.55886C21 7.51261 21 8.67507 21 11C21 13.3249 21 14.4874 20.7444 15.4411C20.0509 18.0293 18.0293 20.0509 15.4411 20.7444C14.4874 21 13.3249 21 11 21Z" stroke="#777777" stroke-width="2" stroke-linecap="round"/>
</svg>
