<svg width="106" height="96" viewBox="0 0 106 96" fill="none" xmlns="http://www.w3.org/2000/svg">
<g opacity="0.999995">
<path d="M79.5392 49.6776C79.5392 66.602 66.1874 80.3434 49.7427 80.3434C33.2981 80.3434 19.9463 66.602 19.9463 49.6776C19.9463 32.7531 33.2981 19.0117 49.7427 19.0117C66.1874 19.0117 79.5392 32.7531 79.5392 49.6776Z" fill="#00004D"/>
</g>
<path d="M34.1387 50.6823L43.9188 60.7479L63.9563 38.2227" stroke="white" stroke-width="6" stroke-linecap="round" stroke-linejoin="round"/>
<path d="M89.8224 14.5938C89.8224 19.5794 93.7498 23.6203 98.5931 23.6203C93.7498 23.6203 89.8224 27.6632 89.8224 32.6489C89.8224 27.6632 85.896 23.6203 81.0518 23.6203C85.896 23.6203 89.8224 19.5794 89.8224 14.5938Z" fill="#4B4B4B"/>
<path d="M7.82295 16.4062C7.82295 19.1217 9.96202 21.3227 12.6 21.3227C9.96202 21.3227 7.82295 23.5247 7.82295 26.2402C7.82295 23.5247 5.6844 21.3227 3.0459 21.3227C5.6844 21.3227 7.82295 19.1217 7.82295 16.4062Z" fill="#4B4B4B"/>
<path d="M86.986 71.332C86.986 74.0475 89.1251 76.2485 91.7631 76.2485C89.1251 76.2485 86.986 78.4505 86.986 81.166C86.986 78.4505 84.8475 76.2485 82.209 76.2485C84.8475 76.2485 86.986 74.0475 86.986 71.332Z" fill="#4B4B4B"/>
<path d="M84.4782 27.3906C84.4782 29.6915 86.2921 31.5582 88.5277 31.5582C86.2921 31.5582 84.4782 33.4231 84.4782 35.7239C84.4782 33.4231 82.6663 31.5582 80.4307 31.5582C82.6663 31.5582 84.4782 29.6915 84.4782 27.3906Z" fill="#00004D"/>
<path d="M17.7207 10.9141C17.7207 14.1998 20.311 16.8657 23.5036 16.8657C20.311 16.8657 17.7207 19.5289 17.7207 22.8146C17.7207 19.5289 15.133 16.8657 11.9404 16.8657C15.133 16.8657 17.7207 14.1998 17.7207 10.9141Z" fill="#00004D"/>
<path d="M11.8272 71.1953C11.0944 73.1593 9.5763 74.7217 7.66797 75.4749C9.5763 76.2291 11.0944 77.7924 11.8272 79.7564C12.56 77.7924 14.078 76.2291 15.9864 75.4749C14.078 74.7217 12.56 73.1593 11.8272 71.1953Z" stroke="#00004D"/>
<path d="M96.1524 67.6719C95.4196 69.6359 93.9015 71.1983 91.9932 71.9514C93.9015 72.7056 95.4196 74.269 96.1524 76.233C96.8852 74.269 98.4032 72.7056 100.312 71.9514C98.4032 71.1983 96.8852 69.6359 96.1524 67.6719Z" stroke="#00004D"/>
</svg>
